# xmcd CD database file
#
# Track frame offsets:
#	183
#	34983
#	79445
#	119508
#	167458
#	187793
#	225293
#
# Disc length: 3468 seconds
#
# Revision: 0
# Processed by: cddbd v1.5.1PL0 Copyright (c) Steve Scherf et al.
# Submitted via: CDex 1.51
#
DISCID=4c0d8a07
DTITLE=Sonny Rollins - A Night at the Village Vanguard
DYEAR=1957
DGENRE=Jazz
TTITLE0=A Night In Tunisia (alt take)
TTITLE1=I've Got You Under My Skin
TTITLE2=A Night In Tunisia (evg take)
TTITLE3=Softly As In a Morning Sunrise
TTITLE4=Four
TTITLE5=Woody'n You
TTITLE6=Old Devil Moon
EXTD=YEAR: 1957
EXTT0=
EXTT1=
EXTT2=
EXTT3=
EXTT4=
EXTT5=
EXTT6=
PLAYORDER=
